<svg width="153" height="35" viewBox="0 0 153 35" fill="none" xmlns="http://www.w3.org/2000/svg">
<path d="M47.364 24.4341L54.99 4.47008H58.772L66.336 24.4341H62.864L60.88 19.2881H52.851L50.867 24.4341H47.364ZM53.378 16.6841H60.322L56.85 7.53908L53.378 16.6841ZM72.2023 24.4341L66.4053 9.74008H69.9083L74.0313 21.1481L78.1543 9.74008H81.6263L75.8603 24.4341H72.2023ZM88.1426 24.7441C87.2126 24.7441 86.3446 24.5787 85.5386 24.2481C84.7532 23.9174 84.1229 23.4214 83.6476 22.7601C83.1722 22.0781 82.9346 21.2411 82.9346 20.2491C82.9346 18.8437 83.4099 17.7174 84.3606 16.8701C85.3319 16.0021 86.8199 15.5681 88.8246 15.5681H93.5366V14.9171C93.5366 14.2144 93.4229 13.6564 93.1956 13.2431C92.9889 12.8297 92.5962 12.5301 92.0176 12.3441C91.4596 12.1581 90.6329 12.0651 89.5376 12.0651C87.8016 12.0651 86.1792 12.3234 84.6706 12.8401V10.3291C85.3319 10.0604 86.1379 9.84341 87.0886 9.67808C88.0392 9.51275 89.0622 9.43008 90.1576 9.43008C92.3069 9.43008 93.9396 9.86408 95.0556 10.7321C96.1922 11.6001 96.7606 13.0157 96.7606 14.9791V24.4341H93.8776L93.6606 22.9461C93.0612 23.5247 92.3172 23.9691 91.4286 24.2791C90.5606 24.5891 89.4652 24.7441 88.1426 24.7441ZM89.0416 22.3261C90.0542 22.3261 90.9326 22.1607 91.6766 21.8301C92.4412 21.4787 93.0612 21.0137 93.5366 20.4351V17.8621H88.8866C87.8946 17.8621 87.1712 18.0584 86.7166 18.4511C86.2826 18.8231 86.0656 19.4017 86.0656 20.1871C86.0656 20.9517 86.3239 21.4994 86.8406 21.8301C87.3572 22.1607 88.0909 22.3261 89.0416 22.3261ZM99.3607 24.4341L105.003 16.9631L99.5777 9.74008H104.104L107.266 14.0181L110.428 9.74008H114.954L109.56 16.9631L115.171 24.4341H110.614L107.266 19.9391L103.918 24.4341H99.3607ZM122.495 24.7441C120.738 24.7441 119.364 24.2584 118.372 23.2871C117.401 22.2951 116.915 20.8484 116.915 18.9471V9.74008H121.1V18.8541C121.1 19.8461 121.338 20.5694 121.813 21.0241C122.288 21.4581 123.001 21.6751 123.952 21.6751C124.675 21.6751 125.337 21.5304 125.936 21.2411C126.556 20.9517 127.083 20.5901 127.517 20.1561V9.74008H131.702V24.4341H127.827L127.672 23.0391C127.052 23.5351 126.318 23.9484 125.471 24.2791C124.644 24.5891 123.652 24.7441 122.495 24.7441ZM135.575 31.1301V9.74008H139.202L139.419 11.1041C140.059 10.5667 140.762 10.1534 141.527 9.86408C142.291 9.57475 143.19 9.43008 144.224 9.43008C146.373 9.43008 148.026 10.0191 149.184 11.1971C150.362 12.3544 150.951 14.2557 150.951 16.9011C150.951 19.5464 150.32 21.5201 149.06 22.8221C147.82 24.1034 146.125 24.7441 143.976 24.7441C142.322 24.7441 140.917 24.3721 139.76 23.6281V31.1301H135.575ZM142.922 21.6751C144.162 21.6751 145.102 21.2927 145.743 20.5281C146.383 19.7634 146.704 18.5647 146.704 16.9321C146.704 15.3614 146.414 14.2351 145.836 13.5531C145.257 12.8504 144.327 12.4991 143.046 12.4991C141.764 12.4991 140.669 12.9434 139.76 13.8321V20.5591C140.194 20.8897 140.648 21.1584 141.124 21.3651C141.62 21.5717 142.219 21.6751 142.922 21.6751Z" fill="#131A35"/>
<path d="M11.6451 3.55583C11.307 4.80422 9.4359 5.69434 7.72828 5.72792C6.02066 5.76151 5.11894 4.62508 5.45145 3.37669C5.78959 2.12829 7.66065 1.23818 9.36827 1.20459C11.0759 1.16541 11.9776 2.30744 11.6451 3.55583Z" fill="#131A35"/>
<path d="M11.6451 3.55583C11.307 4.80422 9.4359 5.69434 7.72828 5.72792C6.02066 5.76151 5.11894 4.62508 5.45145 3.37669C5.78959 2.12829 7.66065 1.23818 9.36827 1.20459C11.0759 1.16541 11.9776 2.30744 11.6451 3.55583Z" fill="#131A35"/>
<path d="M7.90859 20.1209C8.1002 18.2176 8.45525 16.8404 8.8103 14.9426C8.89484 14.478 8.96247 14.1701 9.01883 13.9629C9.03573 13.8902 9.05828 13.6886 9.17099 13.6383C9.22735 13.6103 9.46968 13.6327 9.5204 13.6327C9.70638 13.6439 10.3827 13.7614 10.5799 13.6606C10.7884 13.5543 10.7828 13.1288 11.1379 11.6229L11.5605 9.89307C11.9945 8.29759 10.5574 6.58455 8.37635 6.62933L5.75011 6.52856C4.31864 6.55656 2.90407 7.14436 1.98545 7.98969C1.69239 8.264 1.44442 8.5607 1.26971 8.8742C1.15136 9.07574 1.06683 9.28287 1.01047 9.4956L0.379271 11.8468C0.277828 12.3843 -0.116672 13.1344 0.114392 13.2632C0.289099 13.3583 0.677964 13.3639 0.9992 13.3695C1.15136 13.3751 1.28099 13.3751 1.37116 13.3919C1.45006 13.4031 1.48951 13.4255 1.48387 13.4591C0.756864 17.2939 0.548342 17.0028 0.0298562 22.2986C-0.178665 24.4315 0.672328 26.251 3.61981 26.9563C7.55918 27.8968 11.9381 26.3685 13.364 25.4224C8.74268 24.8122 7.57045 23.5302 7.90859 20.1209Z" fill="#131A35"/>
<path d="M7.90859 20.1209C8.1002 18.2176 8.45525 16.8404 8.8103 14.9426C8.89484 14.478 8.96247 14.1701 9.01883 13.9629C9.03573 13.8902 9.05828 13.6886 9.17099 13.6383C9.22735 13.6103 9.46968 13.6327 9.5204 13.6327C9.70638 13.6439 10.3827 13.7614 10.5799 13.6606C10.7884 13.5543 10.7828 13.1288 11.1379 11.6229L11.5605 9.89307C11.9945 8.29759 10.5574 6.58455 8.37635 6.62933L5.75011 6.52856C4.31864 6.55656 2.90407 7.14436 1.98545 7.98969C1.69239 8.264 1.44442 8.5607 1.26971 8.8742C1.15136 9.07574 1.06683 9.28287 1.01047 9.4956L0.379271 11.8468C0.277828 12.3843 -0.116672 13.1344 0.114392 13.2632C0.289099 13.3583 0.677964 13.3639 0.9992 13.3695C1.15136 13.3751 1.28099 13.3751 1.37116 13.3919C1.45006 13.4031 1.48951 13.4255 1.48387 13.4591C0.756864 17.2939 0.548342 17.0028 0.0298562 22.2986C-0.178665 24.4315 0.672328 26.251 3.61981 26.9563C7.55918 27.8968 11.9381 26.3685 13.364 25.4224C8.74268 24.8122 7.57045 23.5302 7.90859 20.1209Z" fill="#131A35"/>
<path d="M27.8757 0C24.1392 1.62907 20.6958 3.53805 16.5028 5.36306C18.6838 5.44703 21.9187 5.20071 21.9187 5.20071C21.9187 5.20071 20.831 16.8561 18.6838 22.3591C17.7877 24.6488 16.9818 25.7012 15.5165 26.8489C14.2541 27.8398 12.028 28.6347 10.6135 28.9818C7.54763 29.7207 3.23068 29.7879 0.660792 27.3415C0.37337 27.0672 0.502992 27.2967 0.542442 27.4031C2.49803 32.4135 5.90764 34.2385 11.9491 33.9922C20.4703 33.6451 27.7066 28.4779 28.8957 22.2304C29.9834 16.537 30.9302 10.8269 31.9503 5.07195C33.7312 5.01037 34.723 4.98798 36.9999 4.94319C33.4719 3.25254 30.8908 1.44433 27.8757 0Z" fill="#131A35"/>
<path d="M27.8757 0C24.1392 1.62907 20.6958 3.53805 16.5028 5.36306C18.6838 5.44703 21.9187 5.20071 21.9187 5.20071C21.9187 5.20071 20.831 16.8561 18.6838 22.3591C17.7877 24.6488 16.9818 25.7012 15.5165 26.8489C14.2541 27.8398 12.028 28.6347 10.6135 28.9818C7.54763 29.7207 3.23068 29.7879 0.660792 27.3415C0.37337 27.0672 0.502992 27.2967 0.542442 27.4031C2.49803 32.4135 5.90764 34.2385 11.9491 33.9922C20.4703 33.6451 27.7066 28.4779 28.8957 22.2304C29.9834 16.537 30.9302 10.8269 31.9503 5.07195C33.7312 5.01037 34.723 4.98798 36.9999 4.94319C33.4719 3.25254 30.8908 1.44433 27.8757 0Z" fill="#131A35"/>
</svg>
